<svg xmlns="http://www.w3.org/2000/svg" width="1095.6" height="983.225" enable-background="new 0 0 1920 1080" viewBox="412.2 43.148 1095.6 983.225"><path fill="#6b98df" d="M496.28,162.08v721.49h927.45V162.08H496.28z M1405.03,865.92H514.97V179.73h890.06V865.92z"/><rect width="890.07" height="686.19" x="514.97" y="179.73" fill="#fff"/><g opacity=".2"><polygon fill="#ececec" points="896.89 179.73 514.97 540.3 514.97 426.58 776.45 179.73"/><polygon fill="#ececec" points="1405.03 428.07 1405.03 541.79 1061.78 865.92 941.34 865.92"/><polygon fill="#ececec" points="1405.03 196.14 1405.03 253 755.85 865.92 695.63 865.92"/><polygon fill="#ececec" points="1405.03 779.94 1405.03 836.79 1374.19 865.92 1313.97 865.92"/><polygon fill="#ececec" points="619.16 179.73 514.97 278.15 514.97 221.25 558.94 179.73"/><polygon fill="#ececec" points="1069.32 179.73 514.97 703.11 514.97 688.95 1054.25 179.73"/><polygon fill="#ececec" points="1360.47 179.73 633.69 865.92 618.65 865.92 1345.4 179.73"/><polygon fill="#ececec" points="1405.03 709.78 1405.03 723.97 1254.74 865.92 1239.66 865.92"/><polygon fill="#ececec" points="710.81 179.73 514.97 364.68 514.97 350.45 695.81 179.73"/></g><rect width="18.69" height="721.49" x="803.27" y="162.08" fill="#6b98df"/><path fill="#e35757" d="M1458,178.49H462c59.61-50.22,71.62-90.63,71.62-90.63h852.71C1386.33,87.86,1398.35,128.26,1458,178.49z"/><path fill="#fff0f0" d="M668.53 87.86c-1.11 7.93-2.3 16.06-5.13 23.86-1.19 3.91-3 7.78-4.54 11.64-.83 1.94-1.97 3.84-2.93 5.76s-1.94 3.84-3.18 5.71c-4.57 7.57-9.85 15.05-16.29 22.29-3.23 3.64-6.56 7.25-10.12 10.78-3.69 3.53-7.6 6.99-11.79 10.35l-.15.15v.1h-74.76c4.7-3.26 8.89-6.64 12.98-10.05 4.24-3.48 8.26-7.02 11.94-10.66 7.4-7.25 14.24-14.64 19.8-22.29 5.66-7.6 10.35-15.4 13.68-23.33 3.51-7.93 5.1-16.26 5.55-24.31H668.53zM792.95 87.86c-.5 3.84-.83 7.88-1.19 11.66l-1.41 11.44c-1.34 7.6-2.25 15.2-4.24 22.75-.88 3.79-1.97 7.55-2.98 11.34-1.14 3.74-2.37 7.52-3.81 11.24-3.06 7.45-6.26 14.95-11.69 22.04l-.03.1v.08h-74.79c4.07-3.31 7.25-6.82 10.4-10.3 3.18-3.61 6.01-7.25 8.48-10.96 4.92-7.42 9.06-14.97 12.02-22.65 1.34-3.84 2.83-7.68 3.74-11.54.5-1.94 1.11-3.86 1.46-5.81l.96-5.83c.38-1.92.56-3.89.68-5.83l.4-5.83c.05-3.89-.13-8.03-.35-11.89H792.95zM926.04 87.86c-.68 4.22-1.06 8.66-1.62 12.88l-1.14 12.62c-.68 8.41-.98 16.84-1.54 25.25-.18 8.43-.61 16.87-.61 25.27-.03 4.87 0 9.75.1 14.62h-75.27c1.49-3.71 2.55-7.42 3.59-11.16 1.11-3.74 2.02-7.5 2.7-11.29 1.36-7.5 2.68-15.07 3.18-22.62.56-7.55 1.06-15.1.78-22.67-.05-3.79-.23-7.55-.45-11.34-.33-3.76-.63-7.78-1.14-11.56H926.04zM998.76 178.5c.1-4.87.13-9.75.1-14.62 0-8.41-.43-16.84-.61-25.27-.56-8.41-.86-16.84-1.54-25.25l-1.14-12.62c-.56-4.22-.93-8.66-1.62-12.88h71.4c-.51 3.79-.81 7.8-1.14 11.56-.23 3.79-.4 7.55-.45 11.34-.28 7.57.23 15.12.78 22.67.5 7.55 1.82 15.12 3.18 22.62.68 3.79 1.59 7.55 2.7 11.29 1.04 3.74 2.1 7.45 3.59 11.16H998.76zM1152.4 178.5v-.08l-.08-.1c-5.38-7.09-8.58-14.59-11.64-22.04-1.44-3.71-2.68-7.5-3.81-11.24-1.01-3.79-2.1-7.55-2.98-11.34-1.99-7.55-2.9-15.15-4.24-22.75l-1.41-11.44c-.35-3.79-.68-7.83-1.19-11.66h62.34c-.23 3.86-.4 8-.35 11.89l.4 5.83c.13 1.94.3 3.91.68 5.83l.96 5.83c.35 1.94.96 3.86 1.46 5.81.91 3.86 2.4 7.7 3.74 11.54 2.95 7.68 7.09 15.23 12.02 22.65 2.47 3.71 5.3 7.35 8.48 10.96 3.16 3.48 6.34 6.99 10.4 10.3H1152.4zM1305.61 178.5v-.1l-.15-.15c-4.19-3.36-8.1-6.82-11.79-10.35-3.56-3.53-6.89-7.15-10.12-10.78-6.44-7.25-11.72-14.72-16.29-22.29-1.24-1.87-2.22-3.79-3.18-5.71s-2.1-3.81-2.93-5.76c-1.54-3.86-3.36-7.73-4.54-11.64-2.83-7.8-4.01-15.93-5.13-23.86h64.94c.45 8.05 2.05 16.39 5.55 24.31 3.33 7.93 8.03 15.73 13.68 23.33 5.55 7.65 12.4 15.05 19.8 22.29 3.69 3.64 7.7 7.17 11.94 10.66 4.09 3.41 8.28 6.79 12.98 10.05H1305.61z"/><rect width="995.96" height="29.51" x="462.02" y="178.49" fill="#e35757"/><polygon fill="#fff0f0" points="615.18 207.99 538.57 207.99 539.71 178.5 614.04 178.5"/><polygon fill="#fff0f0" points="768.41 207.99 691.81 207.99 692.94 178.5 767.28 178.5"/><polygon fill="#fff0f0" points="921.65 207.99 845.04 207.99 846.18 178.5 920.51 178.5"/><polygon fill="#fff0f0" points="1074.88 207.99 998.25 207.99 999.41 178.5 1073.75 178.5"/><path fill="#fff0f0" d="M1226.96,178.5h-74.33l-1.14,29.49h76.63L1226.96,178.5z M1227.18,203.47h0.13l0.1,0.25       c-0.05-0.03-0.05-0.05-0.1-0.1C1227.28,203.57,1227.23,203.52,1227.18,203.47z"/><path fill="#ffc800" d="M1227.31,203.47l0.1,0.25c-0.05-0.03-0.05-0.05-0.1-0.1c-0.03-0.05-0.08-0.1-0.13-0.15H1227.31z"/><path fill="#fff0f0" d="M1380.19,178.5h-74.33l-1.14,29.49h76.61L1380.19,178.5z M1380.37,203.47h0.2l0.13,0.28       c-0.05-0.03-0.1-0.08-0.13-0.13C1380.52,203.57,1380.42,203.52,1380.37,203.47z"/><path fill="#ffc800" d="M1380.57,203.47l0.13,0.28c-0.05-0.03-0.1-0.08-0.13-0.13c-0.05-0.05-0.15-0.1-0.2-0.15H1380.57z"/><g opacity=".1"><path d="M603.59 87.86c-.45 8.05-2.05 16.39-5.55 24.31-3.33 7.93-8.03 15.73-13.68 23.33-5.55 7.65-12.4 15.05-19.8 22.29-3.69 3.64-7.7 7.17-11.94 10.66-4.09 3.41-8.28 6.79-12.98 10.05-.05.05-.15.08-.2.13-.03.03-.08.08-.13.1l.13-.23h-1.64v-.1l.15-.15c8.56-6.84 16.18-14.01 23.33-21.23 7.25-7.22 13.41-14.67 19.29-22.17 5.98-7.5 10.35-15.23 14.54-23l2.78-5.86c.88-1.94 1.41-3.96 2.25-5.93C601.9 96.11 602.32 91.87 603.59 87.86zM666.38 111.92c-1.74 7.93-5.48 15.76-9.77 23.43-4.24 7.73-10.2 15.2-16.82 22.5-6.62 7.17-14.32 14.16-23.58 20.65-.03.03-.08.08-.13.08-.03.03-.08.05-.1.08l.1-.15h-1.69v-.1l.15-.15c4.19-3.36 8.1-6.82 11.79-10.35 3.56-3.53 6.89-7.15 10.12-10.78 6.44-7.25 11.72-14.72 16.29-22.29 1.24-1.87 2.22-3.79 3.18-5.71s2.1-3.81 2.93-5.76c1.54-3.86 3.36-7.73 4.54-11.64 2.83-7.8 4.01-15.93 5.13-23.86C668.93 95.78 668.6 104.04 666.38 111.92zM926.55 113.38c-.05 8.43-.43 16.84-.61 25.27-.56 8.43-.86 16.84-1.59 25.27-.4 4.85-.83 9.72-1.36 14.57h-1.74c-.1-4.87-.13-9.75-.1-14.62 0-8.41.43-16.84.61-25.27.56-8.41.86-16.84 1.54-25.25l1.14-12.62c.56-4.22.93-8.66 1.62-12.88.28 4.22.28 8.69.45 12.9L926.55 113.38zM998.86 163.88c.03 4.87 0 9.75-.1 14.62h-1.74c-.53-4.85-.96-9.72-1.36-14.57-.73-8.43-1.04-16.84-1.59-25.27-.18-8.43-.56-16.84-.61-25.27l.05-12.62c.18-4.22.18-8.69.45-12.9.68 4.22 1.06 8.66 1.62 12.88l1.14 12.62c.68 8.41.98 16.84 1.54 25.25C998.43 147.04 998.86 155.47 998.86 163.88zM855.44 133.43c-.5 7.55-1.82 15.12-3.18 22.62-.68 3.79-1.59 7.55-2.7 11.29-1.04 3.74-2.1 7.45-3.59 11.16h-1.79v-.1c2.02-7.45 3.16-14.97 4.42-22.5 1.29-7.5 1.92-15.02 2.83-22.57.88-7.5 1.19-15.05 1.84-22.57l1.36-22.9c.5 3.79.81 7.8 1.14 11.56.23 3.79.4 7.55.45 11.34C856.5 118.33 856 125.88 855.44 133.43zM793.58 99.55c0 3.84-.15 7.65-.28 11.49-.4 7.65-1.54 15.28-3.18 22.9-1.51 7.63-4.12 15.17-7.27 22.7-1.54 3.76-3.51 7.47-5.68 11.16-2.2 3.64-4.52 7.22-7.8 10.71 0 .03-.05.05-.05.08-.03 0-.05 0-.05.03l.05-.1h-1.72v-.08l.03-.1c5.43-7.09 8.64-14.59 11.69-22.04 1.44-3.71 2.68-7.5 3.81-11.24 1.01-3.79 2.1-7.55 2.98-11.34 1.99-7.55 2.9-15.15 4.24-22.75l1.41-11.44c.35-3.79.68-7.83 1.19-11.66C793.26 91.69 793.41 95.73 793.58 99.55zM730.97 99.75l-.4 5.83c-.13 1.94-.3 3.91-.68 5.83l-.96 5.83c-.35 1.94-.96 3.86-1.46 5.81-.91 3.86-2.4 7.7-3.74 11.54-2.95 7.68-7.09 15.23-12.02 22.65-2.47 3.71-5.3 7.35-8.48 10.96-3.16 3.48-6.34 6.99-10.4 10.3-.05.05-.1.08-.13.13-.05.03-.05.05-.1.08l.1-.2H691v-.1l.08-.13c7.12-6.87 12.37-14.24 17.12-21.59 4.77-7.37 8.28-14.9 11.56-22.47 3.06-7.57 5.35-15.25 7.17-22.93 1.09-3.84 1.36-7.7 2.17-11.56.66-3.86.88-8 1.51-11.87C730.84 91.72 731.02 95.86 730.97 99.75zM1382.21 178.5h-1.64l.13.23c-.05-.03-.1-.08-.13-.1-.05-.05-.15-.08-.2-.13-4.7-3.26-8.89-6.64-12.98-10.05-4.24-3.48-8.26-7.02-11.94-10.66-7.4-7.25-14.24-14.64-19.8-22.29-5.66-7.6-10.35-15.4-13.68-23.33-3.51-7.93-5.1-16.26-5.55-24.31 1.26 4.01 1.69 8.26 3.46 12.2.83 1.97 1.36 3.99 2.25 5.93l2.78 5.86c4.19 7.78 8.56 15.5 14.54 23 5.88 7.5 12.04 14.95 19.29 22.17 7.15 7.22 14.77 14.39 23.33 21.23l.15.15V178.5zM1305.61 178.5h-1.69l.1.15c-.03-.03-.08-.05-.1-.08-.05 0-.1-.05-.13-.08-9.27-6.49-16.97-13.48-23.58-20.65-6.62-7.3-12.57-14.77-16.82-22.5-4.29-7.68-8.03-15.5-9.77-23.43-2.22-7.88-2.55-16.13-2.15-24.06 1.11 7.93 2.3 16.06 5.13 23.86 1.19 3.91 3 7.78 4.54 11.64.83 1.94 1.97 3.84 2.93 5.76s1.94 3.84 3.18 5.71c4.57 7.57 9.85 15.05 16.29 22.29 3.23 3.64 6.56 7.25 10.12 10.78 3.69 3.53 7.6 6.99 11.79 10.35l.15.15V178.5zM1075.82 178.4v.1h-1.79c-1.49-3.71-2.55-7.42-3.59-11.16-1.11-3.74-2.02-7.5-2.7-11.29-1.36-7.5-2.68-15.07-3.18-22.62-.56-7.55-1.06-15.1-.78-22.67.05-3.79.23-7.55.45-11.34.33-3.76.63-7.78 1.14-11.56l1.36 22.9c.66 7.52.96 15.07 1.84 22.57.91 7.55 1.54 15.07 2.83 22.57C1072.66 163.43 1073.8 170.95 1075.82 178.4zM1152.4 178.5h-1.72l.05.1c0-.03-.03-.03-.05-.03 0-.03-.05-.05-.05-.08-3.28-3.48-5.61-7.07-7.8-10.71-2.17-3.69-4.14-7.4-5.68-11.16-3.16-7.52-5.76-15.07-7.27-22.7-1.64-7.63-2.78-15.25-3.18-22.9-.13-3.84-.28-7.65-.28-11.49.18-3.81.33-7.85.63-11.69.51 3.84.83 7.88 1.19 11.66l1.41 11.44c1.34 7.6 2.25 15.2 4.24 22.75.88 3.79 1.97 7.55 2.98 11.34 1.14 3.74 2.37 7.52 3.81 11.24 3.06 7.45 6.26 14.95 11.64 22.04l.08.1V178.5zM1229 178.5h-1.69l.1.2c-.05-.03-.05-.05-.1-.08-.03-.05-.08-.08-.13-.13-4.07-3.31-7.25-6.82-10.4-10.3-3.18-3.61-6.01-7.25-8.48-10.96-4.92-7.42-9.06-14.97-12.02-22.65-1.34-3.84-2.83-7.68-3.74-11.54-.51-1.94-1.11-3.86-1.46-5.81l-.96-5.83c-.38-1.92-.56-3.89-.68-5.83l-.4-5.83c-.05-3.89.13-8.03.35-11.89.63 3.86.86 8 1.51 11.87.81 3.86 1.09 7.73 2.17 11.56 1.82 7.68 4.12 15.35 7.17 22.93 3.28 7.57 6.79 15.1 11.56 22.47 4.75 7.35 10 14.72 17.12 21.59l.08.13V178.5z"/></g><g opacity=".1"><path d="M1150.67 203.46l.09.2c-.05-.03-.05-.09-.09-.11 0-.03-.05-.06-.05-.09H1150.67zM1227.41 203.72c-.05-.03-.05-.05-.1-.1-.03-.05-.08-.1-.13-.15h.13L1227.41 203.72zM1303.92 203.46l.18.28c-.05-.06-.14-.11-.18-.17-.05-.03-.09-.09-.14-.11H1303.92zM1380.7 203.75c-.05-.03-.1-.08-.13-.13-.05-.05-.15-.1-.2-.15h.2L1380.7 203.75z"/><polygon points="539.71 178.5 538.57 207.99 537.43 178.5"/><polygon points="616.31 178.5 615.18 207.99 614.04 178.5"/><polygon points="692.94 178.5 691.81 207.99 690.67 178.5"/><polygon points="769.55 178.5 768.41 207.99 767.28 178.5"/><polygon points="846.18 178.5 845.04 207.99 843.88 178.5"/><polygon points="922.78 178.5 921.65 207.99 920.51 178.5"/><polygon points="999.41 178.5 998.25 207.99 997.12 178.5"/><polygon points="1076.02 178.5 1074.88 207.99 1073.75 178.5"/><polygon points="1152.62 178.5 1151.49 207.99 1150.35 178.5"/><polygon points="1229.25 178.5 1228.12 207.99 1226.96 178.5"/><polygon points="1305.86 178.5 1304.72 207.99 1303.59 178.5"/><polygon points="1382.49 178.5 1381.33 207.99 1380.19 178.5"/></g><rect width="196.24" height="17.33" x="550.63" y="314.24" fill="#c8c8c8"/><rect width="196.24" height="17.33" x="550.63" y="478.29" fill="#c8c8c8"/><rect width="196.24" height="17.33" x="550.63" y="642.35" fill="#c8c8c8"/><rect width="196.24" height="17.33" x="550.63" y="806.4" fill="#c8c8c8"/><rect width="196.24" height="17.33" x="550.63" y="478.33" fill="#c8c8c8"/><path fill="#ffae01" d="M723.62,313.48c-4.63,1.51-137.01,1.91-142.03-1.32c-1.91-1.21-3.7-22.96-1.73-45.51l85.31,0.71      c0,0,48.86,23.03,53.99,27.16C724.25,298.64,728.25,311.96,723.62,313.48z"/><path fill="#fff" d="M725.57,310.55c-0.21,1.48-0.83,2.55-1.96,2.94c-4.63,1.51-137,1.9-142.04-1.34      c-0.44-0.3-0.89-1.75-1.28-4.09h111.91c0.44-3.17,1.9-8.81,6.23-13.05c4.12-4,9.25-5.04,12.4-5.28c4.15,2.17,7.21,3.92,8.3,4.78      c3.23,2.61,6.02,8.9,6.47,13.55C725.69,308.95,725.69,309.81,725.57,310.55z"/><path fill="#1a2e35" d="M721.76 308.17c-22.18-.7-111.69-1.44-133.67-.45-.18.01-.18.13 0 .14 21.97 1.18 111.49 1.19 133.67.68C722.22 308.52 722.22 308.18 721.76 308.17zM710.67 289.69c-5.26-.25-10.42 2.21-13.31 5.32-2.78 2.99-5.16 7.21-5.04 11.81 0 .13.25.14.27 0 1.33-8.67 9.28-16.24 18.08-16.85C710.85 289.95 710.85 289.7 710.67 289.69zM672.11 269.63c-8.88-.19-19.19 2.87-24.76 10.1-.22.28.19.58.45.45 8.06-4.08 15.71-7.11 24.46-9.45C672.87 270.56 672.74 269.64 672.11 269.63zM678.94 272.35c-8.88-.19-19.19 2.87-24.76 10.1-.22.28.19.58.45.45 8.06-4.08 15.71-7.11 24.46-9.45C679.7 273.28 679.58 272.36 678.94 272.35zM685.78 275.07c-8.88-.19-19.19 2.87-24.76 10.1-.22.28.19.58.45.45 8.06-4.08 15.71-7.11 24.46-9.45C686.54 276 686.41 275.08 685.78 275.07zM692.61 277.79c-8.88-.19-19.19 2.87-24.76 10.1-.22.28.18.58.45.45 8.06-4.08 15.71-7.11 24.46-9.45C693.37 278.72 693.25 277.8 692.61 277.79z"/><path fill="#fff" d="M593.88,282.89c-9.96-0.04-10.04,15.44-0.07,15.48C603.78,298.41,603.86,282.93,593.88,282.89z"/><path fill="#1a2e35" d="M681.88,246.02c-4.48-3.77-10.17-0.18-12.96,3.68c-3.56,4.89-6.29,11.36-7.53,17.62       c-0.21,0.89-0.36,1.78-0.47,2.67c-0.06,0.39-0.09,0.77-0.15,1.13c0.03,0.03,0.03,0.03,0,0.03c0,0.12,0,0.21-0.03,0.3       c0,0.3-0.03,0.59-0.06,0.89c0,0.21,0.15,0.27,0.3,0.27c0.09,0.42,0.44,0.8,0.89,0.86c0.21,0.06,0.44,0.03,0.68-0.12       c1.75-1.19,3.59-2.37,5.43-3.56c0.33-0.21,0.65-0.42,0.98-0.62c4.48-2.91,8.87-5.99,12.13-10.14       C683.9,255.42,686.1,249.55,681.88,246.02z M670.85,264.79c-1.48,1.07-3,2.08-4.48,3.11c-1.28,0.89-2.58,1.81-3.83,2.76       c-0.15,0.09-0.3,0.21-0.44,0.33c-0.15,0.12-0.33,0.24-0.47,0.36c0.06-0.18,0.12-0.33,0.18-0.5c0-0.03,0.03-0.03,0.03-0.06       c0.42-1.16,0.83-2.31,1.25-3.47c1.07-3.08,2.19-6.14,3.65-9.08c0.98-2.02,2.02-4.09,3.26-5.96       c1.96-2.94,10.74-10.29,11.54-0.62C681.97,256.99,674.5,262.15,670.85,264.79z"/><path fill="#1a2e35" d="M662.6,271.82c0.12-0.09,0.15-0.24,0.03-0.36c-0.18-0.15-0.36-0.33-0.53-0.47       c-0.06-0.06-0.15-0.15-0.21-0.18c-0.03-0.03-0.03-0.06-0.06-0.03c-0.3-0.3-0.59-0.56-0.92-0.8c-1.16-0.98-2.37-1.87-3.65-2.7       c-4.89-3.32-10.65-5.81-16.05-6.88c-4.66-0.95-11.27,0.27-12.01,6.05c-0.03,0.21-0.03,0.42-0.03,0.59       c-0.27,5.1,5.1,7.74,9.43,8.42c4.54,0.74,9.14,0.3,13.73-0.42c3.2-0.5,6.41-1.13,9.52-1.6c0.03,0,0.03,0,0.06,0       C662.72,273.34,662.9,272.45,662.6,271.82z M650.06,272.8c-4.48,0.53-13.5,1.81-16.79-2.43c-1.01-1.31-1.51-2.37-1.63-3.29       c-0.68-4.51,7.68-4.75,10.53-4.06c2.19,0.53,4.36,1.33,6.47,2.17c1.57,0.62,3.11,1.31,4.63,2.08c2.52,1.22,5.01,2.55,7.5,3.86       c0,0,0.03,0,0.03,0.03c0.15,0.06,0.33,0.15,0.47,0.24c-0.18,0.03-0.36,0.03-0.53,0.06c-0.42,0.03-0.86,0.06-1.28,0.12       C656.32,271.91,653.2,272.42,650.06,272.8z"/><path fill="#6493d8" d="M723.62,640.97c-4.63,1.51-137.01,1.91-142.03-1.32c-1.91-1.21-3.7-22.96-1.73-45.51l85.31,0.71      c0,0,48.86,23.03,53.99,27.16C724.26,626.13,728.25,639.46,723.62,640.97z"/><path fill="#1a2e35" d="M721.76 635.66c-22.18-.7-111.69-1.44-133.67-.45-.18.01-.18.13 0 .14 21.97 1.18 111.49 1.19 133.67.68C722.22 636.02 722.23 635.68 721.76 635.66zM710.68 617.18c-5.26-.25-10.42 2.21-13.31 5.32-2.78 2.99-5.16 7.21-5.04 11.81 0 .13.25.14.27 0 1.33-8.67 9.28-16.24 18.08-16.85C710.85 617.45 710.86 617.19 710.68 617.18zM672.11 597.12c-8.88-.19-19.19 2.87-24.76 10.1-.22.28.19.58.45.45 8.06-4.08 15.71-7.11 24.46-9.45C672.87 598.05 672.75 597.13 672.11 597.12zM678.95 599.84c-8.88-.19-19.19 2.87-24.76 10.1-.22.28.19.58.45.45 8.06-4.08 15.71-7.11 24.46-9.45C679.71 600.77 679.58 599.85 678.95 599.84zM685.78 602.56c-8.88-.19-19.19 2.87-24.76 10.1-.22.28.19.58.45.45 8.06-4.08 15.71-7.11 24.46-9.45C686.54 603.49 686.42 602.58 685.78 602.56zM692.61 605.28c-8.88-.19-19.19 2.87-24.76 10.1-.22.28.18.58.45.45 8.06-4.08 15.71-7.11 24.46-9.45C693.38 606.21 693.25 605.3 692.61 605.28zM593.89 614.18c-9.96-.04-10.04 15.44-.07 15.48C603.78 629.7 603.87 614.22 593.89 614.18z"/><path fill="#1a2e35" d="M681.89,573.5c-4.48-3.77-10.17-0.15-12.96,3.68c-3.56,4.92-6.29,11.39-7.53,17.65       c-0.21,0.89-0.36,1.78-0.47,2.64c-0.03,0.39-0.09,0.77-0.15,1.13c0.03,0.03,0,0.03,0,0.03v0.3c-0.03,0.33-0.06,0.62-0.09,0.92       c0,0.18,0.15,0.27,0.3,0.24c0.09,0.42,0.44,0.8,0.89,0.86c0.21,0.06,0.44,0.03,0.68-0.12c1.75-1.19,3.59-2.37,5.43-3.56       c0.33-0.18,0.62-0.39,0.95-0.59c4.48-2.91,8.9-5.99,12.16-10.17C683.9,582.9,686.1,577.06,681.89,573.5z M670.85,592.28       c-1.48,1.07-3,2.11-4.48,3.14c-1.28,0.89-2.52,1.78-3.77,2.7c-0.18,0.12-0.36,0.27-0.5,0.39c-0.15,0.12-0.33,0.24-0.47,0.36       c0.06-0.18,0.12-0.36,0.18-0.53c0.03-0.03,0.03-0.03,0.03-0.06c0.42-1.16,0.83-2.28,1.22-3.44c1.1-3.08,2.22-6.14,3.68-9.11       c0.98-2.02,2.02-4.09,3.26-5.96c1.96-2.91,10.74-10.26,11.54-0.59C681.98,584.48,674.5,589.67,670.85,592.28z"/><path fill="#1a2e35" d="M662.61,599.34c0.12-0.09,0.15-0.24,0.03-0.39c-0.18-0.18-0.36-0.33-0.53-0.44       c-0.06-0.12-0.15-0.18-0.21-0.21c-0.03-0.03-0.03-0.06-0.06-0.03c-0.3-0.33-0.59-0.56-0.92-0.8c-1.13-0.98-2.34-1.87-3.59-2.67       c-4.89-3.29-10.68-5.81-16.11-6.91c-4.66-0.95-11.27,0.27-12.01,6.05c-0.03,0.21-0.03,0.42-0.03,0.62       c-0.24,5.07,5.1,7.71,9.43,8.42c4.54,0.71,9.19,0.27,13.79-0.44c3.17-0.5,6.35-1.13,9.46-1.6c0.03,0,0.03,0,0.06,0       C662.73,600.82,662.9,599.93,662.61,599.34z M650.06,600.29c-4.48,0.56-13.5,1.81-16.79-2.4c-1.01-1.31-1.51-2.37-1.63-3.29       c-0.68-4.51,7.68-4.75,10.53-4.06c2.19,0.5,4.36,1.33,6.47,2.14c1.6,0.62,3.14,1.33,4.69,2.11c2.52,1.22,4.95,2.55,7.44,3.83       l0.03,0.03c0.15,0.09,0.33,0.15,0.47,0.24c-0.18,0-0.33,0.03-0.5,0.06c-0.44,0.03-0.86,0.06-1.3,0.12       C656.32,599.4,653.21,599.9,650.06,600.29z"/><g><path fill="#969617" d="M723.62,808.49c-4.63,1.51-137.01,1.91-142.03-1.32c-1.91-1.21-3.7-45.55-1.73-68.09l85.31,0.71      c0,0,0.58,22.85,1.62,23.35c8.5,4.02,47.8,22.71,52.37,26.39C724.26,793.65,728.25,806.97,723.62,808.49z"/><path fill="#1a2e35" d="M721.76 803.18c-22.18-.7-111.69-1.44-133.67-.45-.18.01-.18.13 0 .14 21.97 1.18 111.49 1.19 133.67.68C722.22 803.53 722.23 803.19 721.76 803.18zM710.68 784.7c-5.26-.25-10.42 2.21-13.31 5.32-2.78 2.99-5.16 7.21-5.04 11.81 0 .13.25.14.27 0 1.33-8.67 9.28-16.24 18.08-16.85C710.85 784.97 710.86 784.71 710.68 784.7zM668.27 748.09c-8.17-3.48-18.88-4.48-26.74.15-.3.18-.05.61.25.58 9-.79 17.22-.75 26.22.34C668.63 749.24 668.86 748.34 668.27 748.09zM669.14 755.15c-8.17-3.48-18.88-4.48-26.74.15-.3.18-.05.61.25.58 9-.79 17.22-.75 26.22.34C669.5 756.3 669.72 755.4 669.14 755.15zM670 762.21c-8.17-3.48-18.88-4.48-26.74.15-.3.18-.05.61.25.58 9-.79 17.22-.75 26.22.34C670.36 763.36 670.59 762.46 670 762.21zM597.5 740.14c.39 4.7.57 9.41.72 14.11.17 4.7.2 9.41.22 14.11-.02 4.7-.05 9.41-.22 14.11-.15 4.7-.33 9.41-.73 14.11-.39-4.7-.58-9.41-.73-14.11-.17-4.7-.2-9.41-.22-14.11.02-4.7.05-9.41.22-14.11C596.93 749.55 597.11 744.84 597.5 740.14z"/></g><g><path fill="#ffc800" d="M723.62,478.1c-4.63,1.51-137.01,1.91-142.03-1.32c-1.91-1.21-3.7-77.26-1.73-99.81l85.31,0.71      c0,0,0.58,54.57,1.62,55.06c8.5,4.02,47.8,22.71,52.37,26.39C724.26,463.26,728.25,476.59,723.62,478.1z"/><path fill="#e35757" d="M723.62,478.1c-4.63,1.51-137.01,1.91-142.03-1.32c-1.91-1.21-3.7-77.26-1.73-99.81l85.31,0.71      c0,0,0.58,54.57,1.62,55.06c8.5,4.02,47.8,22.71,52.37,26.39C724.26,463.26,728.25,476.59,723.62,478.1z"/><path fill="#1a2e35" d="M721.76 472.79c-22.18-.7-111.69-1.44-133.67-.45-.18.01-.18.13 0 .14 21.97 1.18 111.49 1.19 133.67.68C722.23 473.15 722.23 472.81 721.76 472.79zM710.68 454.31c-5.26-.25-10.42 2.21-13.31 5.32-2.78 2.99-5.16 7.21-5.04 11.81 0 .13.25.14.27 0 1.33-8.67 9.28-16.24 18.08-16.85C710.85 454.58 710.86 454.32 710.68 454.31zM668.07 418.11c-8.07-3.71-18.74-5.03-26.73-.63-.31.17-.06.61.23.59 9.01-.53 17.24-.25 26.2 1.1C668.4 419.26 668.65 418.37 668.07 418.11zM668.73 425.19c-8.07-3.71-18.74-5.03-26.73-.63-.31.17-.06.61.23.59 9.01-.53 17.24-.25 26.2 1.1C669.06 426.35 669.31 425.46 668.73 425.19zM667.47 411.02c-8.07-3.71-18.74-5.03-26.73-.63-.31.17-.06.61.23.59 9.01-.53 17.24-.25 26.2 1.1C667.8 412.18 668.05 411.29 667.47 411.02zM666.84 403.94c-8.07-3.71-18.74-5.03-26.73-.63-.31.17-.06.61.23.59 9.01-.53 17.24-.25 26.2 1.1C667.16 405.09 667.41 404.2 666.84 403.94zM666.2 396.85c-8.07-3.71-18.74-5.03-26.73-.63-.31.17-.06.61.23.59 9.02-.53 17.24-.25 26.2 1.1C666.53 398.01 666.78 397.12 666.2 396.85zM665.57 389.77c-8.07-3.71-18.74-5.03-26.73-.63-.31.17-.06.61.23.59 9.01-.53 17.24-.25 26.2 1.1C665.9 390.93 666.15 390.04 665.57 389.77zM669.39 432.28c-8.07-3.71-18.74-5.03-26.73-.63-.31.17-.06.61.23.59 9.01-.53 17.24-.25 26.2 1.1C669.72 433.43 669.97 432.54 669.39 432.28zM597.5 377.12c.39 7.42.57 14.85.72 22.27.16 7.42.14 14.85.22 22.27-.07 7.42-.07 14.85-.22 22.27-.15 7.42-.33 14.85-.73 22.27-.39-7.42-.58-14.85-.73-22.27-.15-7.42-.14-14.85-.22-22.27.08-7.42.06-14.85.22-22.27C596.93 391.97 597.11 384.54 597.5 377.12z"/></g><g><rect width="4.83" height="590.28" x="1120.92" y="79.17" fill="#6b98df" transform="rotate(90 1123.331 374.31)"/></g><g><path fill="#ff735d" d="M1029.73,398.7c0,0,28.58-15.46,60.85,0l14.15,35.51l4.03,297.46l-43.48,3.34h-10.24l-32.44-10.41      L1002.97,489l3.46-55.44L1029.73,398.7z"/><path d="M1029.73,398.7c0,0,28.58-15.46,60.85,0l14.15,35.51l4.03,297.46l-43.48,3.34h-10.24l-32.44-10.41L1002.97,489      l3.46-55.44L1029.73,398.7z" opacity=".3"/><path fill="#ff735d" d="M1029.73,398.7c0,0,28.58-15.46,60.85,0l14.15,35.51l4.03,297.46l-43.48,3.34h-10.24l-32.44-10.41      L1002.97,489l3.46-55.44L1029.73,398.7z"/><path fill="#d86060" d="M1029.73,398.7c0,0,28.58-15.46,60.85,0l14.15,35.51l4.03,297.46l-43.48,3.34h-10.24l-32.44-10.41      L1002.97,489l3.46-55.44L1029.73,398.7z"/><path fill="#1a2e35" d="M1118.28,424.62h-116.04l0.14-1.28c0.04-0.39,1.13-9.59,5.58-12.57c4.12-2.76,19.7-7.89,20.49-8.15       l34.98-12.09l0.4,0.16c4.88,1.97,47.77,19.3,51.21,22.62c4.64,4.49,3.48,10.16,3.43,10.4L1118.28,424.62z M1004.86,422.32       h111.48c0.08-1.53-0.13-4.7-2.89-7.36c-2.34-2.26-31.07-14.32-50.07-21.98l-34.19,11.82c-0.16,0.05-16.06,5.28-19.94,7.88       C1006.71,414.38,1005.36,419.41,1004.86,422.32z"/><path fill="#1a2e35" d="M1064.4,392.32l-2-1.13c0.04-0.07,4.12-7.39,3.41-14.29c-0.17-1.66-0.77-2.83-1.83-3.58       c-2.24-1.59-5.82-0.76-5.85-0.75l-0.54-2.23c0.19-0.04,4.61-1.09,7.71,1.1c1.61,1.14,2.56,2.9,2.8,5.23       C1068.89,384.3,1064.59,392,1064.4,392.32z"/><path fill="#ff735d" d="M1196.01,629.59c0,0-47.97-158.14-52.71-169.21c-4.74-11.07-19.5-46.39-39.54-55.88l-13.18-5.8      c0,0,7.38,33.21-3.16,54.82c-10.54,21.61-23.72,89.62-24.78,112.81c-1.05,23.19,2.64,168.69,2.64,168.69l82.23-6.33l-1.05-79.07      L1196.01,629.59z"/><path fill="#1a2e35" d="M1146.5 652.36c-.04 0-.09-.49-.14-1.43-.04-1.06-.1-2.42-.16-4.09-.07-3.55-.32-8.69-.59-15.03-.63-12.69-2-30.18-4.02-49.46-2.02-19.28-4.25-36.7-5.76-49.32-.76-6.31-1.33-11.42-1.66-14.96-.18-1.77-.25-3.15-.32-4.08-.06-.93-.06-1.43-.02-1.43.04 0 .13.48.26 1.41.14 1.05.32 2.4.54 4.05.5 3.67 1.19 8.73 2.04 14.91 1.72 12.59 4.09 30 6.11 49.3 2.03 19.3 3.26 36.83 3.68 49.55.16 6.36.29 11.5.22 15.06-.03 1.67-.05 3.03-.06 4.09C1146.57 651.87 1146.54 652.36 1146.5 652.36zM1130.35 578.02c-.02.02-.34.05-.93.07-.69.02-1.54.05-2.58.08-2.35.04-5.53.11-9.5.18l.34-.38c1.7 13.09 4.4 35.07 7.33 59.98l.09.76-.64-.53c4.27-.36 8.45-.71 12.47-1.05l-.54.58c.03-8.52-.63-16.53-1.36-23.73-.74-7.2-1.57-13.59-2.3-18.91-.75-5.21-1.36-9.44-1.8-12.52-.2-1.37-.36-2.48-.48-3.37C1130.35 578.42 1130.34 578.07 1130.35 578.02c.01-.05.15.39.32 1.14.18.88.41 1.98.68 3.34.56 2.91 1.32 7.16 2.15 12.48.83 5.32 1.75 11.71 2.56 18.92.8 7.21 1.51 15.24 1.51 23.85l0 .53-.54.05c-4.03.35-8.2.7-12.47 1.07l-.58.05-.07-.58-.09-.76c-2.94-24.91-5.43-46.92-6.82-60.04l-.04-.39.38.01c4.04.08 7.28.14 9.67.18 1.01.03 1.84.06 2.51.08C1130.09 577.97 1130.37 578 1130.35 578.02zM1062.45 560.09c-.03-.03.38-.55 1.19-1.51.78-.98 2.07-2.31 3.52-4.21 3.01-3.69 7.13-9.24 11.95-16.26 4.81-7.04 10.28-15.6 16.04-25.29 2.86-4.86 5.85-9.97 8.78-15.35 2.91-5.38 5.99-10.98 8.49-16.91 1.79-3.26-.31-6.72-2.13-9.61-1.97-2.93-4.3-5.58-6.7-7.99l-1.48-1.48 2.02.5c5.42 1.33 10.64 2.61 15.62 3.83l-.57.2c2.39-3.25 3.23-7.28 3.55-11.02.33-3.77.09-7.41-.26-10.81-.77-6.81-2.18-12.7-3.48-17.51-1.32-4.81-2.58-8.57-3.51-11.1-.91-2.55-1.57-3.84-1.57-3.84.1-.08.88 1.2 1.9 3.71 1.04 2.51 2.4 6.24 3.82 11.05 1.4 4.81 2.9 10.71 3.75 17.59.39 3.44.68 7.12.37 11-.31 3.83-1.11 8.04-3.69 11.6l-.21.29-.36-.09c-4.99-1.2-10.21-2.46-15.63-3.77l.54-.99c2.48 2.47 4.83 5.13 6.88 8.17 1 1.52 1.95 3.14 2.56 4.96.15.46.3.91.36 1.41.11.48.15.98.1 1.5.04.53-.16.98-.29 1.46-.14.48-.28.96-.47 1.37-2.56 6.08-5.64 11.63-8.58 17.04-2.96 5.39-5.97 10.5-8.86 15.35-5.82 9.68-11.37 18.21-16.29 25.2-4.92 6.98-9.15 12.47-12.29 16.08-1.51 1.86-2.86 3.14-3.7 4.08C1062.95 559.65 1062.48 560.11 1062.45 560.09z"/><path fill="#e87979" d="M1196.01,629.59c0,0-47.97-158.14-52.71-169.21c-4.74-11.07-19.5-46.39-39.54-55.88l-13.18-5.8      c0,0,7.38,33.21-3.16,54.82c-10.54,21.61-23.72,89.62-24.78,112.81c-1.05,23.19,2.64,168.69,2.64,168.69l82.23-6.33l-1.05-79.07      L1196.01,629.59z"/><path fill="#1a2e35" d="M1146.5 652.36c-.04 0-.09-.49-.14-1.43-.04-1.06-.1-2.42-.16-4.09-.07-3.55-.32-8.69-.59-15.03-.63-12.69-2-30.18-4.02-49.46-2.02-19.28-4.25-36.7-5.76-49.32-.76-6.31-1.33-11.42-1.66-14.96-.18-1.77-.25-3.15-.32-4.08-.06-.93-.06-1.43-.02-1.43.04 0 .13.48.26 1.41.14 1.05.32 2.4.54 4.05.5 3.67 1.19 8.73 2.04 14.91 1.72 12.59 4.09 30 6.11 49.3 2.03 19.3 3.26 36.83 3.68 49.55.16 6.36.29 11.5.22 15.06-.03 1.67-.05 3.03-.06 4.09C1146.57 651.87 1146.54 652.36 1146.5 652.36zM1130.35 578.02c-.02.02-.34.05-.93.07-.69.02-1.54.05-2.58.08-2.35.04-5.53.11-9.5.18l.34-.38c1.7 13.09 4.4 35.07 7.33 59.98l.09.76-.64-.53c4.27-.36 8.45-.71 12.47-1.05l-.54.58c.03-8.52-.63-16.53-1.36-23.73-.74-7.2-1.57-13.59-2.3-18.91-.75-5.21-1.36-9.44-1.8-12.52-.2-1.37-.36-2.48-.48-3.37C1130.35 578.42 1130.34 578.07 1130.35 578.02c.01-.05.15.39.32 1.14.18.88.41 1.98.68 3.34.56 2.91 1.32 7.16 2.15 12.48.83 5.32 1.75 11.71 2.56 18.92.8 7.21 1.51 15.24 1.51 23.85l0 .53-.54.05c-4.03.35-8.2.7-12.47 1.07l-.58.05-.07-.58-.09-.76c-2.94-24.91-5.43-46.92-6.82-60.04l-.04-.39.38.01c4.04.08 7.28.14 9.67.18 1.01.03 1.84.06 2.51.08C1130.09 577.97 1130.37 578 1130.35 578.02zM1062.45 560.09c-.03-.03.38-.55 1.19-1.51.78-.98 2.07-2.31 3.52-4.21 3.01-3.69 7.13-9.24 11.95-16.26 4.81-7.04 10.28-15.6 16.04-25.29 2.86-4.86 5.85-9.97 8.78-15.35 2.91-5.38 5.99-10.98 8.49-16.91 1.79-3.26-.31-6.72-2.13-9.61-1.97-2.93-4.3-5.58-6.7-7.99l-1.48-1.48 2.02.5c5.42 1.33 10.64 2.61 15.62 3.83l-.57.2c2.39-3.25 3.23-7.28 3.55-11.02.33-3.77.09-7.41-.26-10.81-.77-6.81-2.18-12.7-3.48-17.51-1.32-4.81-2.58-8.57-3.51-11.1-.91-2.55-1.57-3.84-1.57-3.84.1-.08.88 1.2 1.9 3.71 1.04 2.51 2.4 6.24 3.82 11.05 1.4 4.81 2.9 10.71 3.75 17.59.39 3.44.68 7.12.37 11-.31 3.83-1.11 8.04-3.69 11.6l-.21.29-.36-.09c-4.99-1.2-10.21-2.46-15.63-3.77l.54-.99c2.48 2.47 4.83 5.13 6.88 8.17 1 1.52 1.95 3.14 2.56 4.96.15.46.3.91.36 1.41.11.48.15.98.1 1.5.04.53-.16.98-.29 1.46-.14.48-.28.96-.47 1.37-2.56 6.08-5.64 11.63-8.58 17.04-2.96 5.39-5.97 10.5-8.86 15.35-5.82 9.68-11.37 18.21-16.29 25.2-4.92 6.98-9.15 12.47-12.29 16.08-1.51 1.86-2.86 3.14-3.7 4.08C1062.95 559.65 1062.48 560.11 1062.45 560.09z"/><path fill="#e87979" d="M924.3,629.59c0,0,47.97-158.14,52.71-169.21c4.74-11.07,19.5-46.39,39.54-55.88l13.18-5.8       c0,0-7.38,33.21,3.16,54.82c10.54,21.61,23.72,89.62,24.78,112.81c1.05,23.19-2.64,168.69-2.64,168.69l-82.23-6.33l1.05-79.07       L924.3,629.59z"/><path fill="#1a2e35" d="M973.82 652.36c-.04 0-.08-.49-.1-1.43-.02-1.06-.04-2.42-.06-4.09-.07-3.56.05-8.7.22-15.06.41-12.71 1.65-30.25 3.68-49.55 2.02-19.3 4.39-36.71 6.11-49.3.85-6.18 1.54-11.24 2.04-14.91.22-1.66.4-3 .54-4.05.13-.93.22-1.41.26-1.41.04 0 .03.5-.02 1.43-.06.93-.14 2.32-.32 4.08-.33 3.54-.9 8.66-1.66 14.96-1.51 12.62-3.74 30.03-5.76 49.32-2.03 19.28-3.39 36.77-4.02 49.46-.27 6.34-.52 11.48-.59 15.03-.07 1.67-.12 3.03-.16 4.09C973.91 651.87 973.86 652.36 973.82 652.36zM989.97 578.02c-.02-.02.26-.05.82-.07.67-.02 1.5-.05 2.51-.08 2.39-.04 5.64-.11 9.67-.18l.38-.01-.04.39c-1.39 13.12-3.88 35.13-6.82 60.04l-.09.76-.07.58-.58-.05c-4.27-.37-8.45-.73-12.47-1.07l-.54-.05 0-.53c-.01-8.61.71-16.64 1.51-23.85.81-7.21 1.73-13.6 2.56-18.92.84-5.32 1.59-9.56 2.15-12.48.28-1.36.5-2.46.68-3.34C989.81 578.41 989.95 577.97 989.97 578.02c.01.05 0 .4-.11 1.18-.13.88-.29 2-.48 3.37-.44 3.08-1.05 7.31-1.8 12.52-.73 5.33-1.56 11.72-2.3 18.91-.73 7.19-1.39 15.21-1.36 23.73l-.54-.58c4.03.34 8.2.69 12.47 1.05l-.64.53.09-.76c2.94-24.91 5.63-46.9 7.33-59.98l.34.38c-3.96-.08-7.15-.14-9.5-.18-1.04-.03-1.88-.06-2.58-.08C990.3 578.07 989.99 578.04 989.97 578.02zM1057.86 560.09c-.03.03-.5-.44-1.37-1.35-.84-.93-2.19-2.22-3.7-4.08-3.13-3.61-7.36-9.1-12.29-16.08-4.91-6.99-10.46-15.52-16.29-25.2-2.89-4.85-5.91-9.96-8.86-15.35-2.94-5.4-6.02-10.96-8.58-17.04-.2-.42-.34-.89-.47-1.37-.13-.48-.33-.94-.29-1.46-.04-.52-.01-1.02.11-1.5.06-.5.21-.95.36-1.41.61-1.82 1.55-3.43 2.56-4.96 2.05-3.03 4.4-5.7 6.88-8.17l.54.99c-5.42 1.31-10.65 2.57-15.63 3.77l-.36.09-.21-.29c-2.58-3.56-3.38-7.76-3.69-11.6-.31-3.88-.03-7.56.37-11 .85-6.88 2.35-12.77 3.75-17.59 1.42-4.81 2.78-8.54 3.82-11.05 1.02-2.51 1.8-3.79 1.9-3.71 0 0-.66 1.29-1.57 3.84-.93 2.54-2.19 6.29-3.51 11.1-1.3 4.81-2.71 10.7-3.48 17.51-.35 3.4-.6 7.04-.26 10.81.32 3.73 1.16 7.76 3.55 11.02l-.57-.2c4.98-1.22 10.2-2.5 15.62-3.83l2.02-.5-1.48 1.48c-2.4 2.4-4.73 5.06-6.7 7.99-1.82 2.89-3.92 6.35-2.13 9.61 2.5 5.93 5.58 11.53 8.49 16.91 2.93 5.38 5.92 10.49 8.78 15.35 5.76 9.69 11.23 18.25 16.04 25.29 4.82 7.03 8.94 12.57 11.95 16.26 1.45 1.9 2.74 3.23 3.52 4.21C1057.48 559.54 1057.89 560.06 1057.86 560.09z"/></g><g><path fill="#ff735d" d="M1255.05,395.12c0,0,25.38-13.73,54.02,0l12.57,31.53l3.57,361.32l-38.6,2.97h-9.09l-28.8-9.24      l-17.42-306.41l3.07-49.22L1255.05,395.12z"/><path d="M1255.05,395.12c0,0,25.38-13.73,54.02,0l12.57,31.53l3.57,361.32l-38.6,2.97h-9.09l-28.8-9.24l-17.42-306.41      l3.07-49.22L1255.05,395.12z" opacity=".3"/><path fill="#e1e1e1" d="M1255.05,395.12c0,0,25.38-13.73,54.02,0l12.57,31.53l3.57,361.32l-38.6,2.97h-9.09l-28.8-9.24      l-17.42-306.41l3.07-49.22L1255.05,395.12z"/><path fill="#dda4a4" d="M1255.05,395.12c0,0,25.38-13.73,54.02,0l12.57,31.53l3.57,361.32l-38.6,2.97h-9.09l-28.8-9.24      l-17.42-306.41l3.07-49.22L1255.05,395.12z"/><path fill="#1a2e35" d="M1333.65,418.13h-103.01l0.13-1.13c0.04-0.35,1-8.51,4.95-11.16c3.66-2.45,17.49-7,18.19-7.24       l31.05-10.73l0.35,0.14c4.33,1.74,42.41,17.13,45.46,20.08c4.12,3.98,3.09,9.02,3.05,9.24L1333.65,418.13z M1232.96,416.09       h98.96c0.07-1.36-0.12-4.17-2.56-6.54c-2.08-2.01-27.58-12.71-44.45-19.51l-30.35,10.49c-0.14,0.05-14.26,4.69-17.7,7       C1234.61,409.03,1233.41,413.51,1232.96,416.09z"/><path fill="#1a2e35" d="M1285.83,389.46l-1.77-1c0.04-0.06,3.66-6.56,3.03-12.68c-0.15-1.47-0.69-2.51-1.62-3.18       c-1.99-1.41-5.17-0.67-5.2-0.67l-0.48-1.98c0.17-0.04,4.09-0.97,6.85,0.97c1.43,1.01,2.27,2.57,2.48,4.64       C1289.81,382.34,1285.99,389.17,1285.83,389.46z"/><path fill="#fcc" d="M1402.66,600.09c0,0-42.59-140.39-46.8-150.22c-4.21-9.83-17.32-41.18-35.1-49.61l-11.7-5.15      c0,0,6.55,29.48-2.81,48.67c-9.36,19.19-21.06,79.56-21.99,100.15c-0.94,20.59,2.34,247,2.34,247l73-5.62l-0.94-167.44      L1402.66,600.09z"/><path fill="#1a2e35" d="M1358.71 620.31c-.04 0-.08-.44-.12-1.27-.04-.94-.08-2.15-.14-3.63-.06-3.15-.29-7.71-.53-13.34-.56-11.26-1.77-26.79-3.57-43.91-1.79-17.12-3.77-32.58-5.11-43.78-.68-5.6-1.18-10.14-1.48-13.28-.16-1.57-.23-2.8-.28-3.63-.05-.83-.06-1.27-.02-1.27.04 0 .12.43.23 1.25.12.94.28 2.13.48 3.6.45 3.26 1.06 7.75 1.81 13.24 1.53 11.18 3.63 26.63 5.42 43.77 1.8 17.13 2.9 32.7 3.26 43.99.15 5.64.25 10.21.19 13.37-.02 1.49-.04 2.69-.06 3.64C1358.77 619.87 1358.74 620.31 1358.71 620.31zM1344.37 554.31c-.02.02-.3.04-.83.07-.61.02-1.37.04-2.29.07-2.08.04-4.91.09-8.43.16l.3-.34c1.51 11.62 3.9 31.14 6.51 53.25l.08.68-.57-.47c3.79-.32 7.5-.63 11.07-.93l-.48.51c.03-7.56-.56-14.68-1.2-21.06-.66-6.39-1.39-12.06-2.04-16.79-.67-4.63-1.21-8.38-1.6-11.11-.18-1.22-.32-2.21-.43-2.99C1344.37 554.67 1344.36 554.36 1344.37 554.31c.01-.05.14.35.28 1.01.16.78.36 1.76.61 2.96.5 2.59 1.17 6.35 1.91 11.08.74 4.72 1.56 10.39 2.27 16.79.71 6.4 1.34 13.53 1.34 21.17l0 .47-.48.04c-3.57.31-7.28.63-11.07.95l-.51.04-.06-.51-.08-.68c-2.61-22.12-4.82-41.65-6.05-53.31l-.04-.34.34.01c3.58.07 6.47.12 8.59.16.9.03 1.63.05 2.23.07C1344.14 554.27 1344.39 554.29 1344.37 554.31zM1284.1 538.39c-.03-.03.34-.49 1.06-1.34.7-.87 1.84-2.05 3.13-3.74 2.67-3.28 6.33-8.2 10.61-14.44 4.27-6.25 9.12-13.85 14.24-22.45 2.54-4.31 5.19-8.85 7.8-13.63 2.59-4.78 5.32-9.75 7.54-15.01 1.59-2.89-.27-5.96-1.89-8.53-1.75-2.6-3.82-4.96-5.95-7.09l-1.31-1.32 1.79.44c4.81 1.18 9.44 2.32 13.86 3.4l-.5.18c2.12-2.89 2.87-6.46 3.15-9.78.3-3.35.08-6.58-.23-9.6-.68-6.04-1.93-11.27-3.09-15.54-1.17-4.27-2.29-7.6-3.12-9.86-.81-2.26-1.4-3.41-1.4-3.41.09-.07.78 1.07 1.69 3.3.92 2.23 2.13 5.54 3.39 9.81 1.24 4.27 2.58 9.51 3.33 15.61.35 3.05.6 6.32.33 9.77-.27 3.4-.99 7.14-3.28 10.3l-.19.26-.32-.08c-4.43-1.07-9.06-2.18-13.88-3.34l.48-.88c2.2 2.19 4.29 4.56 6.11 7.25.89 1.35 1.73 2.78 2.27 4.4.13.4.27.81.32 1.25.1.43.13.87.09 1.33.03.47-.14.87-.26 1.3-.12.43-.25.85-.42 1.22-2.27 5.39-5.01 10.33-7.62 15.13-2.62 4.79-5.3 9.32-7.87 13.63-5.17 8.59-10.1 16.17-14.46 22.38-4.37 6.2-8.13 11.07-10.91 14.28-1.34 1.65-2.54 2.79-3.28 3.62C1284.54 538 1284.12 538.42 1284.1 538.39z"/><path fill="#1a2e35" d="M1358.71 620.31c-.04 0-.08-.44-.12-1.27-.04-.94-.08-2.15-.14-3.63-.06-3.15-.29-7.71-.53-13.34-.56-11.26-1.77-26.79-3.57-43.91-1.79-17.12-3.77-32.58-5.11-43.78-.68-5.6-1.18-10.14-1.48-13.28-.16-1.57-.23-2.8-.28-3.63-.05-.83-.06-1.27-.02-1.27.04 0 .12.43.23 1.25.12.94.28 2.13.48 3.6.45 3.26 1.06 7.75 1.81 13.24 1.53 11.18 3.63 26.63 5.42 43.77 1.8 17.13 2.9 32.7 3.26 43.99.15 5.64.25 10.21.19 13.37-.02 1.49-.04 2.69-.06 3.64C1358.77 619.87 1358.74 620.31 1358.71 620.31zM1344.37 554.31c-.02.02-.3.04-.83.07-.61.02-1.37.04-2.29.07-2.08.04-4.91.09-8.43.16l.3-.34c1.51 11.62 3.9 31.14 6.51 53.25l.08.68-.57-.47c3.79-.32 7.5-.63 11.07-.93l-.48.51c.03-7.56-.56-14.68-1.2-21.06-.66-6.39-1.39-12.06-2.04-16.79-.67-4.63-1.21-8.38-1.6-11.11-.18-1.22-.32-2.21-.43-2.99C1344.37 554.67 1344.36 554.36 1344.37 554.31c.01-.05.14.35.28 1.01.16.78.36 1.76.61 2.96.5 2.59 1.17 6.35 1.91 11.08.74 4.72 1.56 10.39 2.27 16.79.71 6.4 1.34 13.53 1.34 21.17l0 .47-.48.04c-3.57.31-7.28.63-11.07.95l-.51.04-.06-.51-.08-.68c-2.61-22.12-4.82-41.65-6.05-53.31l-.04-.34.34.01c3.58.07 6.47.12 8.59.16.9.03 1.63.05 2.23.07C1344.14 554.27 1344.39 554.29 1344.37 554.31zM1284.1 538.39c-.03-.03.34-.49 1.06-1.34.7-.87 1.84-2.05 3.13-3.74 2.67-3.28 6.33-8.2 10.61-14.44 4.27-6.25 9.12-13.85 14.24-22.45 2.54-4.31 5.19-8.85 7.8-13.63 2.59-4.78 5.32-9.75 7.54-15.01 1.59-2.89-.27-5.96-1.89-8.53-1.75-2.6-3.82-4.96-5.95-7.09l-1.31-1.32 1.79.44c4.81 1.18 9.44 2.32 13.86 3.4l-.5.18c2.12-2.89 2.87-6.46 3.15-9.78.3-3.35.08-6.58-.23-9.6-.68-6.04-1.93-11.27-3.09-15.54-1.17-4.27-2.29-7.6-3.12-9.86-.81-2.26-1.4-3.41-1.4-3.41.09-.07.78 1.07 1.69 3.3.92 2.23 2.13 5.54 3.39 9.81 1.24 4.27 2.58 9.51 3.33 15.61.35 3.05.6 6.32.33 9.77-.27 3.4-.99 7.14-3.28 10.3l-.19.26-.32-.08c-4.43-1.07-9.06-2.18-13.88-3.34l.48-.88c2.2 2.19 4.29 4.56 6.11 7.25.89 1.35 1.73 2.78 2.27 4.4.13.4.27.81.32 1.25.1.43.13.87.09 1.33.03.47-.14.87-.26 1.3-.12.43-.25.85-.42 1.22-2.27 5.39-5.01 10.33-7.62 15.13-2.62 4.79-5.3 9.32-7.87 13.63-5.17 8.59-10.1 16.17-14.46 22.38-4.37 6.2-8.13 11.07-10.91 14.28-1.34 1.65-2.54 2.79-3.28 3.62C1284.54 538 1284.12 538.42 1284.1 538.39z"/><path fill="#fcc" d="M1161.45,600.09c0,0,42.59-140.39,46.8-150.22c4.21-9.83,17.32-41.18,35.1-49.61l11.7-5.15       c0,0-6.55,29.48,2.81,48.67c9.36,19.19,21.06,79.56,22,100.15c0.94,20.59-2.34,247-2.34,247l-73-5.62l0.94-167.44       L1161.45,600.09z"/><path fill="#1a2e35" d="M1205.41 620.31c-.04 0-.07-.44-.09-1.27-.01-.94-.03-2.15-.06-3.64-.06-3.16.05-7.73.19-13.37.37-11.29 1.46-26.86 3.26-43.99 1.79-17.14 3.89-32.59 5.42-43.77.75-5.49 1.36-9.97 1.81-13.24.2-1.47.36-2.66.48-3.6.12-.82.2-1.25.23-1.25.04 0 .03.44-.02 1.27-.06.83-.12 2.06-.28 3.63-.29 3.14-.8 7.68-1.48 13.28-1.34 11.2-3.32 26.66-5.11 43.78-1.8 17.11-3.01 32.65-3.57 43.91-.24 5.63-.46 10.19-.53 13.34-.06 1.48-.11 2.69-.14 3.63C1205.49 619.87 1205.45 620.31 1205.41 620.31zM1219.74 554.31c-.02-.02.23-.04.73-.07.6-.02 1.33-.04 2.23-.07 2.12-.04 5-.09 8.59-.16l.34-.01-.04.34c-1.23 11.65-3.45 31.19-6.05 53.31l-.08.68-.06.51-.51-.04c-3.79-.33-7.5-.64-11.07-.95l-.48-.04 0-.47c-.01-7.64.63-14.77 1.34-21.17.72-6.4 1.54-12.07 2.27-16.79.74-4.72 1.41-8.49 1.91-11.08.25-1.21.45-2.19.61-2.96C1219.61 554.66 1219.73 554.27 1219.74 554.31c.01.05 0 .36-.09 1.05-.11.78-.26 1.77-.43 2.99-.39 2.73-.93 6.49-1.6 11.11-.65 4.73-1.38 10.4-2.04 16.79-.65 6.39-1.23 13.5-1.2 21.06l-.48-.51c3.57.3 7.28.61 11.07.93l-.57.47.08-.68c2.61-22.12 5-41.63 6.51-53.25l.3.34c-3.52-.07-6.35-.12-8.43-.16-.92-.03-1.67-.05-2.29-.07C1220.04 554.35 1219.76 554.33 1219.74 554.31zM1280.02 538.39c-.03.03-.44-.39-1.21-1.19-.75-.83-1.95-1.97-3.29-3.62-2.78-3.21-6.54-8.08-10.91-14.28-4.36-6.21-9.29-13.78-14.46-22.38-2.57-4.31-5.24-8.84-7.87-13.63-2.61-4.8-5.34-9.73-7.62-15.13-.17-.37-.3-.79-.42-1.22-.11-.43-.29-.83-.26-1.3-.04-.46 0-.9.09-1.33.05-.44.18-.85.32-1.25.54-1.62 1.38-3.05 2.27-4.4 1.82-2.69 3.91-5.06 6.11-7.25l.48.88c-4.81 1.16-9.45 2.28-13.88 3.34l-.32.08-.19-.26c-2.29-3.16-3-6.89-3.28-10.3-.28-3.44-.02-6.72.33-9.77.75-6.1 2.09-11.34 3.33-15.61 1.26-4.27 2.47-7.58 3.39-9.81.9-2.23 1.6-3.36 1.69-3.3 0 0-.58 1.15-1.4 3.41-.83 2.25-1.94 5.58-3.12 9.86-1.15 4.27-2.41 9.5-3.09 15.54-.31 3.02-.53 6.25-.23 9.6.29 3.32 1.03 6.89 3.15 9.78l-.5-.18c4.42-1.09 9.05-2.22 13.86-3.4l1.79-.44-1.31 1.32c-2.13 2.13-4.2 4.49-5.95 7.09-1.62 2.57-3.48 5.64-1.89 8.53 2.22 5.26 4.95 10.23 7.54 15.01 2.6 4.78 5.26 9.31 7.8 13.63 5.11 8.6 9.97 16.2 14.24 22.45 4.28 6.24 7.93 11.16 10.61 14.44 1.28 1.68 2.43 2.86 3.13 3.74C1279.68 537.9 1280.05 538.37 1280.02 538.39z"/></g><g><path fill="#f2b3c1" d="M868.47,445.66c41.85,4.7,63.68,20.7,82.41,18.39c18.73-2.31,71.8-33.14,71.8-33.14l18.99,15.14       c0,0-45.35,48.4-99.7,53.97c-30.69,3.14-63.7,2.98-63.7,2.98"/><path fill="#ffae01" d="M868.57,445.67C911,452,933.27,459.31,952,457c18.73-2.31,42.6-11.87,42.6-11.87l19.29,29.46       c0,0-25.22,24.6-71.02,30c-27.21,3.21-64.51-1.58-64.51-1.58"/><polygon fill="#ffae01" points="999.25 441.87 984.26 449.37 1007.98 484.38 1021.51 468.44"/><path fill="#f2b3c1" d="M1028.27,446.64c5.7,0.62,11.57,0.24,16.97-1.67c5.4-1.91,10.32-5.42,13.42-10.25        c0.99-1.53,1.79-3.2,2.2-4.97c0.14-0.59,0.21-1.28-0.18-1.74c-0.64-0.76-1.87-0.32-2.71,0.22c-1.53,0.99-3.01,2.16-4.79,2.56        c-8.61,1.92-1.51-8.9,0.17-11.27c3.34-4.73,7.5-9.21,10.01-14.46c0.57-1.19,0.92-2.1,0.31-3.28        c-2.23-4.35-16.23,12.12-17.16,13.25c-1.25-1.77-3.69-2.27-5.84-2.06c-2.15,0.21-4.23,0.97-6.38,1.15        c-1.15,0.1-2.32,0.03-3.45,0.28c-2.95,0.66-5.01,3.34-6.3,6.08c-3.12,6.6-3.16,14.57-0.12,21.2"/><path fill="#1e1814" d="M858.9,942.71c-9.51,13.17-9.06,34.94-3.05,37.14c3.55,1.3,75.64,3.64,76.69-0.57          c5.19-20.78-54.34-32.9-54.34-32.9"/><path fill="#f2b3c1" d="M901,912l1,41c0.18,0.06-11,5-28,4c-11.98-0.7-19-6-19-6v-44"/><path fill="#6493d8" d="M899,605c26.12,123.18,6,333.69,6,333.69h-54c0,0-3.82-240.57-13-250.69       c-9.18-10.12-20.17-40.39-2.07-78.96"/><path fill="none" stroke="#00093d" stroke-miterlimit="10" stroke-width=".93" d="M863.5,935.5c0,0,0.88-221.03-14-270"/><polygon fill="#ef9797" points="849.58 938.56 906.29 938.56 907 932.47 849 932.1"/><path fill="#1e1814" d="M733,924c-11.89,8.45-17.87,25.95-13.4,29.56c2.64,2.13,63.24,24.94,65.35,21.66          c10.42-16.16-36.69-43.66-36.69-43.66"/><path fill="#f2b3c1" d="M792.32,899.81l-21.93,47.68c0,0-8.85,0.23-24.39-8.49c-10.21-5.73-13-15-13-15          l19.25-49.6"/><path fill="#6493d8" d="M852,609c0,0-5.07,118.26-15.06,164.75C820.35,850.94,785.64,933,785.64,933l-52.49-25.22       c0,0,35.99-123.07,35.99-142.08c0-23.19-0.27-67.81-0.27-73.63C769,660,766,634,776.37,601"/><polygon fill="#ef9797" points="731 912 784 937 789 929 733 904"/><path fill="none" stroke="#00093d" stroke-miterlimit="10" stroke-width=".93" d="M747.5 910.5c0 0 30.15-118.46 30.15-136.53 0-16.45-.32-44.26-.21-59.6.06-8.87.06-11.87.06-17.87 0-25.9-2-50 7.03-79.08M901.96 616c0 0-62.4 12.81-136.93-2.83"/><line x1="834.35" x2="835.09" y1="636.28" y2="623.25" fill="none" stroke="#00093d" stroke-miterlimit="10" stroke-width=".93"/><path d="M845.33,632.16c-3.19,0-3.2-4.96,0-4.96C848.52,627.2,848.53,632.16,845.33,632.16L845.33,632.16z"/><path fill="none" stroke="#00093d" stroke-miterlimit="10" stroke-width=".93" d="M849.5,620.5c0,0,1.24,49.08-1.04,73.29c-3.22,28.58-6.96,51.71-6.96,51.71"/><path fill="none" stroke="#00093d" stroke-miterlimit="10" stroke-width=".93" d="M858.5,620.58c0,0-1.67,26.69-3.58,28.59c-1.91,1.91-5.02,3.11-5.02,3.11"/><path fill="#fff" d="M784.81,483.77c0,0-3.65,73.85,11.71,106.81c24.94,7.23,86.02,6.95,97.88,3.66      c11.86-3.29,17.44-110.47,17.44-110.47l-35.1-37.43c0,0-9.94-1.1-14.47-1.1c-22.11-1.76-30.52-0.56-30.52-0.56L784.81,483.77z"/><path fill="#f2b3c1" d="M871.91 428.03l2.86 18.12c0 0 0 10.96-15 10.96-22.12 0-24.91-12.01-24.91-12.01l7.25-34.12M882.28 408.2c.19-.94 1.43-1.29 2.36-1.03 1.32.37 2.3 1.55 2.74 2.85.44 1.3.41 2.71.26 4.07-.14 1.27-.4 2.56-1.14 3.6-1.31 1.85-4.13 2.4-6.04 1.18"/><path fill="#f2b3c1" d="M874,440.61c0,0-1-0.01-2.37,0.11c-9.63,0.89-15.63-1.11-19.63-6.11c-7-9,1-21,1-21l18.6,13.2        c-0.16,2.19,1.4,2.86,1.4,4.8C873,436.61,874,438.61,874,440.61z"/><path fill="#f2b3c1" d="M883.63,391.83c0,0,3.64,31.04-1.54,36.57c-7.75,8.29-23.22,6.83-29.1,1.68       c-4.93-4.32-6.31-23.98-6.01-28.97C848,384,877.55,383.76,883.63,391.83z"/><path fill="#011e3b" d="M840.55,382.73c3.17-4.05,7.88-6.56,12.59-8.62c5.58-2.44,11.6-4.43,17.66-3.83        c3.86,0.39,7.54,1.81,11.03,3.48c1.22,0.58,2.41,1.33,3.31,2.36c0.79,0.91,1.24,2.81,2.64,2.92c2.91,0.22,1.75,3.42,1.37,5.21        c-0.38,1.79-1.14,3.52-2.56,4.73c-1.29,1.1-2.98,1.64-4.65,1.95c-3.84,0.71-7.78,0.35-11.67,0.21        c-5.79-0.22-11.6,0.02-17.35,0.71c0.42,6.17-0.18,12.41-1.77,18.38c-1.36-0.84-3.27-1.62-4.38-0.48        c-0.33,0.34-0.51,0.8-0.69,1.24c-0.83,2.08-1.79,4.11-2.88,6.08c-0.62,1.13-1.58,2.39-2.86,2.24        c-3.45-0.42-3.24-5.6-3.59-8.09c-0.57-4.02-0.96-8.07-0.97-12.13C835.77,393.3,836.98,387.28,840.55,382.73z"/><path fill="#f2b3c1" d="M853.76,407.84c-0.54-1.3-2.7-3.2-4.02-3.24c-1.32-0.04-2.63,0.57-3.69,1.47        c-4.96,4.22-1.59,14.08,5.12,13.98c2.46-0.03,2.25-3.32,2.25-3.32"/><path fill="#011e3b" d="M866.17 405.82c.06.79-.37 1.46-.97 1.51-.6.05-1.13-.55-1.19-1.34-.06-.79.37-1.46.97-1.51C865.58 404.43 866.11 405.03 866.17 405.82zM882.89 404.38c.06.79-.37 1.46-.97 1.51-.6.05-1.13-.55-1.19-1.34-.06-.79.37-1.46.97-1.51S882.82 403.59 882.89 404.38z"/><path fill="none" stroke="#000" stroke-linecap="round" stroke-linejoin="round" stroke-miterlimit="10" stroke-width=".604" d="M881.13,399.46c-4.01-1.06-6.42,2.17-5.98,5.23c0.44,3.06,2.99,11.21,3.72,12.88l-5.75-1.44"/><g><path fill="#ffae01" d="M831.76,444.69c0,0,9.64,33.92,3,108.45c-3.86,43.26-17.75,90.88-17.75,90.88s-47.28-4.31-47.28-10.65       c0-6.34,11.32-41.92,11.32-64.11c0-22.19,2.98-103.29,2.98-103.29S805.65,447.53,831.76,444.69z"/><path fill="none" stroke="#00093d" stroke-miterlimit="10" stroke-width=".851" d="M815.93,449.37c0,0,4.96,47.39,8.17,50.52c0.97,0.94,8.17,1.68,8.17,3.65c0,1.98-5.52,2.35-5.52,7.47       s2.81,28.05,6.6,43.88"/><path fill="#ffae01" d="M876.74,446.34c0,0,3.93,191.46,6.56,197.68c11.55,2.43,32.89-3.94,32.89-3.94s-5.51-62.65-4.35-81.05       c1.81-28.78,3.34-62.23,3.34-62.23l-1.05-36.98C914.12,459.82,900.18,451.04,876.74,446.34z"/><path fill="none" stroke="#00093d" stroke-miterlimit="10" stroke-width=".851" d="M889.97,447.7c0,0,3.34,43.24-1.8,52.2c-0.67,1.17-8.09,2.04-8,4.01c0.09,1.98,5.61,2.1,5.84,7.22       c0.23,5.12-2.73,27.72-5.84,44.85"/><line x1="914.47" x2="914.84" y1="511.5" y2="483" fill="none" stroke="#00093d" stroke-miterlimit="10" stroke-width=".851"/></g><g><path fill="none" stroke="#34383b" stroke-miterlimit="10" stroke-width="1.648" d="M813.62,709.29c0,0-5.24-39.09-28.65-37.29c-19.53,1.5-23.4,37.63-23.4,37.63"/><polygon fill="#4b7dea" points="829.63 704.26 835.09 822.12 730.26 817.41 744.4 700.44"/><polygon fill="#1e1814" points="730.26 817.41 744.4 700.44 717.8 806.96"/><path fill="none" stroke="#34383b" stroke-miterlimit="10" stroke-width="1.648" d="M799.26,715.48c0,0,10.81-38.62-12.25-43.19c-19.13-3.8-30.71,29.59-30.71,29.59"/><polygon fill="#e86262" points="815.93 710.5 799.02 813.65 709.03 790.32 742.76 691.54"/><polygon fill="#1e1814" points="709.03 790.32 742.76 691.54 700.15 778.98"/><path fill="#f2b3c1" d="M739.81,550.61c-5.83,37.79,33.84,112.23,33.84,112.23l23.21-8.03c0,0-20.59-81.15-14.69-94.34"/><path fill="#ffae01" d="M818.04,500.6c0,0-30.34,43.07-32.45,61.07c-2.55,21.68,4.49,54.91,4.49,54.91       C776.71,622.7,758,630,758,630s-24.95-40.83-19-82c6.59-45.6,38.85-87.03,71.88-97.85"/><path fill="none" stroke="#00093d" stroke-miterlimit="10" stroke-width=".851" d="M790.08,616.57c0,0-7.87-37.86-4.49-54.91c3.39-17.04,27.06-53.13,27.06-53.13"/><path fill="#f2b3c1" d="M790.83,640.38c8.5,5.81,14.88,17.52,15.32,27.77c0.22,5.01-1.28,10.93-5.68,13.93        c-2.06,1.41-5.38,2.76-7.83,3.1c-1.34,0.19-8.44-2.13-8.34-2.19c-4.43,2.7-8.8-0.03-11.65-4.37        c-2.85-4.34-4.36-9.54-1.54-13.89c0.43-0.66,2.01-1.94,2.01-1.94s-2.5-16.72,10.33-22.98"/></g><polygon fill="#ffae01" points="787.15 605.08 792.67 620.68 760.89 635.94 751 617"/><g><path fill="#1e1814" d="M869.8,403.29c-0.19,0-0.35-0.14-0.37-0.33c-0.01-0.11-0.37-2.61-3.01-3.25       c-2.67-0.65-4.28,1.3-4.34,1.39c-0.13,0.16-0.37,0.19-0.53,0.06c-0.16-0.13-0.19-0.36-0.06-0.53c0.08-0.1,1.97-2.41,5.11-1.65       c3.16,0.77,3.57,3.85,3.58,3.88c0.03,0.21-0.12,0.39-0.32,0.42C869.83,403.29,869.81,403.29,869.8,403.29z"/></g><path fill="none" stroke="#000" stroke-linecap="round" stroke-linejoin="round" stroke-miterlimit="10" stroke-width=".618" d="M867.95,419.55c0.82,3.3,4.19,3.14,5.8,2.81"/><g><path fill="#fff" d="M873.82,402.95c-0.95-3.81-5.08-6.21-9.21-5.38c-4.11,0.85-6.69,4.62-5.74,8.42      c0.82,3.22,3.89,5.44,7.31,5.54c0.63,0.03,1.26-0.02,1.9-0.17c3.39-0.68,5.73-3.34,5.93-6.39      C874.05,404.31,873.99,403.63,873.82,402.95z M867.86,410.45c-3.57,0.73-7.15-1.36-7.98-4.66c-0.83-3.3,1.4-6.56,4.98-7.29      c0.55-0.12,1.1-0.16,1.65-0.14c2.96,0.08,5.63,2.01,6.33,4.8C873.66,406.46,871.43,409.72,867.86,410.45z"/><path fill="#1a2e35" d="M867.86,410.45c-3.57,0.73-7.15-1.36-7.98-4.66c-0.83-3.3,1.4-6.56,4.98-7.29      c0.55-0.12,1.1-0.16,1.65-0.14c2.96,0.08,5.63,2.01,6.33,4.8C873.66,406.46,871.43,409.72,867.86,410.45z"/><path fill="#fff" d="M889.17,402.59c-0.18-1.85-0.95-3.55-2.12-4.8c-1.21-1.28-2.72-1.93-4.29-1.8      c-1.55,0.13-2.91,0.98-3.85,2.45c-0.9,1.39-1.3,3.19-1.1,5.05c0.38,3.66,2.97,6.51,5.92,6.6c0.16,0.01,0.33,0.01,0.5-0.01      C887.36,409.83,889.58,406.47,889.17,402.59z M884.12,409.13c-2.58,0.2-4.96-2.38-5.31-5.73c-0.17-1.66,0.18-3.25,0.97-4.48      c0.77-1.18,1.86-1.89,3.08-1.98c0.12-0.02,0.25-0.01,0.38-0.02c1.09,0.04,2.15,0.55,3.03,1.49c1.04,1.09,1.7,2.61,1.88,4.26      C888.5,406.03,886.69,408.93,884.12,409.13z"/><path fill="#1a2e35" d="M884.12,409.13c-2.58,0.2-4.96-2.38-5.31-5.73c-0.17-1.66,0.18-3.25,0.97-4.48      c0.77-1.18,1.86-1.89,3.08-1.98c0.12-0.02,0.25-0.01,0.38-0.02c1.09,0.04,2.15,0.55,3.03,1.49c1.04,1.09,1.7,2.61,1.88,4.26      C888.5,406.03,886.69,408.93,884.12,409.13z"/><path fill="#fff" d="M873.66 403.79l-.73-.67c1.07-.99 3.62-2.4 5.68-.71l-.68.7C876.08 401.59 873.76 403.7 873.66 403.79zM839.8 408.26l-.95-.36c.18-.41 1.81-3.99 4.05-4.51 2.1-.48 15.92-.37 16.5-.36l0 .94c-3.96-.04-14.62-.04-16.24.33C841.68 404.64 840.23 407.27 839.8 408.26z"/></g><g><path stroke="#000" stroke-miterlimit="10" stroke-width=".082" d="M847.9,414.81c-0.07,0-0.13-0.05-0.13-0.12c-0.01-0.11-0.25-2.78,1.22-3.14c0.27-0.06,0.53-0.02,0.78,0.14      c0.55,0.34,0.94,1.17,1.18,1.84c-0.09-2.26-0.48-5.93-1.65-6.05c-1.66-0.18-2.22,1.99-2.22,2.01c-0.02,0.07-0.09,0.12-0.16,0.1      c-0.07-0.02-0.12-0.09-0.1-0.16c0.01-0.02,0.63-2.41,2.51-2.21c1.86,0.2,1.91,6.59,1.91,7.32c0,0.07-0.05,0.13-0.12,0.13      c-0.07,0.01-0.13-0.04-0.15-0.1c0-0.02-0.47-2.09-1.35-2.64c-0.19-0.12-0.37-0.15-0.57-0.1c-1.25,0.3-1.02,2.82-1.02,2.85      c0.01,0.07-0.05,0.14-0.12,0.15C847.91,414.81,847.91,414.81,847.9,414.81z"/></g></g></svg>